<svg version="1.2" xmlns="http://www.w3.org/2000/svg" viewBox="0 0 750 500" width="750" height="500">
	<defs>
		<clipPath clipPathUnits="userSpaceOnUse" id="cp1">
			<path d="m69.41 454.29c-55.54-63.06-43.55-127.7-43.55-127.7 0 0 10.74-137.83 131.6-142.95 120.86-5.11 124.54-35.37 131.53-51.17 7-15.79 39.67-112.07 195.33-91.39 155.65 20.69 244.01 131.5 243.38 274.27-0.41 91.49-67.54 161.87-67.54 161.87l-532.37 0.77"/>
		</clipPath>
		<linearGradient id="g1" x2="1" gradientUnits="userSpaceOnUse" gradientTransform="matrix(-33.068,-117.604,-166.207,46.735,540.984,313.063)">
			<stop offset="0" stop-color="#ffffff"/>
			<stop offset="1" stop-color="#ffffff" stop-opacity="0"/>
		</linearGradient>
	</defs>
	<style>
		.s0 { fill: #3d2314 } 
		.s1 { fill: #efe3d5 } 
		.s2 { fill: #ff596d } 
		.s3 { fill: #cb4757 } 
		.s4 { fill: #eaac9f } 
		.s5 { fill: #c37c89 } 
		.s6 { fill: #121212 } 
		.s7 { fill: #b13e2f } 
		.s8 { fill: #dfd0c2 } 
		.s9 { fill: #ee7f9e } 
		.s10 { fill: none;stroke: #363636;stroke-linecap: round;stroke-linejoin: round;stroke-width: 2 } 
		.s11 { opacity: .5;fill: #b7b7b7 } 
		.s12 { fill: none;stroke: #595959;stroke-miterlimit:10 } 
		.s13 { fill: url(#g1) } 
		.s14 { fill: #363636 } 
		.s15 { fill: none;stroke: #888888;stroke-linecap: round;stroke-linejoin: round;stroke-width: 2 } 
		.s16 { fill: #c98f6a } 
		.s17 { fill: none;stroke: #363636;stroke-miterlimit:10;stroke-width: 2 } 
		.s18 { fill: #34926c } 
		.s19 { fill: #dc6b88 } 
		.s20 { fill: #ffffff } 
		.s21 { fill: #8bb169 } 
		.s22 { fill: #a69cac } 
		.s23 { fill: #f1dac4 } 
		.s24 { fill: #474973 } 
	</style>
	<g id="OBJECTS">
		<g id="&lt;Group&gt;">
			<g id="&lt;Clip Group&gt;" clip-path="url(#cp1)" style="opacity: .6">
			</g>
			<g id="&lt;Group&gt;">
				<g id="&lt;Group&gt;">
					<g id="&lt;Group&gt;">
						<path id="&lt;Path&gt;" class="s0" d="m497.8 210.99c-0.27 0.73-0.95 1.3-1.77 1.3q-5.87 0.08-11.74 0.17c1.27-8.63 0.8-17.85 0.39-25.86-0.03-0.77-1.16-0.77-1.22 0-0.53 8.84-3.01 17.38-4.96 25.95q-1.55 0.03-3.11 0.06c0.77-4.49 0.4-9.07 0.67-13.18 0.06-0.83-0.55-0.8-0.64 0-0.59 4.46-1.39 8.87-2.54 13.21q-9.93 0.13-19.86 0.27c1.21-8.1 1.86-16.32 2.42-24.27 0.06-0.86-0.54-0.86-0.63 0-0.71 8.3-2.86 16.32-4.48 24.3-32.82 0.35-65.69 0.47-98.5 0.06-0.06-4.26-0.27-8.52-0.18-12.69 0.03-0.35-0.47-0.32-0.5 0-0.5 4.17-1.24 8.43-1.77 12.69-1.78-0.03-3.55-0.03-5.36-0.09q0-1.38 0.03-2.75c0.15-6.8 1.51-13.36 0.98-20.19 0-0.27-0.38-0.27-0.41 0-0.83 7.86-2.84 15.28-4.11 22.91q-5.84-0.09-11.68-0.18c-0.92-0.03-1.77-0.77-1.74-1.66 0.62-19.18-2.25-43.66 8.98-60.77 5-7.63 11.74-13.07 19.39-17.8 11.8-7.3-7.15-50.07 29.39-85.19 6.65-6.39 15.46-9.96 24.39-9.96 41.82 0 65.86 37.06 66.86 63.82 0.33 9.16-1.06 18.12-3.69 26.9-5.35 17.91 13.48 28.41 18.65 33.34 14.01 13.33 12.42 33.08 6.74 49.61z"/>
						<path id="&lt;Path&gt;" class="s0" d="m500.1 169.54c-7.04-13.15-23.99-18.86-24.22-35.32-0.11-7.34 1.16-14.55 0.76-21.92-0.36-6.63-1.37-13.22-3.1-19.61-3.72-13.8-10.34-25.75-19.23-36.67-0.04-0.05-0.1 0.02-0.07 0.06 9.13 11.72 15.53 25.99 18.62 40.62 1.51 7.15 2.32 14.43 2.24 21.74-0.07 6.75-1.7 13.8-0.51 20.5 1.82 10.25 10.95 14.54 17.54 21.28 11.25 11.5 14.85 27.8 11.62 43.44-0.07 0.32 0.4 0.46 0.49 0.14 2.97-11.38 1.38-23.94-4.14-34.26z"/>
						<path id="&lt;Path&gt;" class="s0" d="m374.54 61.11c-8.11 10.75-13.31 23.06-15.69 36.31-1.22 6.74-1.48 13.62-2.85 20.33-1.8 8.8-5.8 15.04-12.17 21.23-19.76 19.16-24.92 45.44-20.91 72.11 0.09 0.61 1.15 0.48 1.09-0.15-1.44-15.12-1.7-30.33 3.45-44.87 2.61-7.39 6.47-14.46 11.75-20.29 4.08-4.51 9.22-8.03 12.77-13.02 6.27-8.79 6.34-20.02 7.68-30.31 1.92-14.8 7.33-28.52 14.96-41.29 0.03-0.05-0.05-0.09-0.08-0.05z"/>
					</g>
					<g id="&lt;Group&gt;">
						<g id="&lt;Group&gt;">
							<path id="&lt;Path&gt;" class="s1" d="m165.71 110.26l5.61-1.92c0 0 26.28 5.88 35.05 20.9 0 0 19.27-14.82 63.28-7.73l5.85 4.89-71.76 19.22z"/>
							<path id="&lt;Path&gt;" class="s2" d="m227.51 227.61l-22.49-94.38c0 0 47.25-11.97 71.74-9.04l22.93 99.41c0 0-25.26-0.63-72.18 4.01z"/>
							<path id="&lt;Path&gt;" class="s3" d="m227.51 227.61c0 0-11.02-12.99-33.98-20.96l-31.59-97.49c0 0 21.65 9.22 43.08 24.07z"/>
						</g>
						<g id="&lt;Group&gt;">
							<path id="&lt;Path&gt;" class="s4" d="m395.3 257.25c-1.27 1.3-2.63 2.75-4.11 4.28-24 25.16-70 80.5-93.35 68.14-24.57-13.03-67.94-78.48-74.65-91.87-6.71-13.36 9.49-26.84 19.51-22.62 10.03 4.2 55.49 41.71 61.88 44.97 2.74 1.38 14.78-11.33 33.64-28.35q2.26-2.04 4.67-4.17c20.6-18.24 43.86-37.48 59.47-38.76q2.72-0.17 4.91 0.27c19.3 4.14 21.4 33.67-11.97 68.11z"/>
							<path id="&lt;Path&gt;" class="s5" d="m395.3 257.25c-1.27 1.3-2.63 2.75-4.11 4.28-3.87-5.23-8.37-10.02-13.39-14.1-12.68-10.22-27.97-13.09-39.58-15.63q2.26-2.04 4.67-4.17c20.6-18.24 43.86-37.48 59.47-38.76q2.72-0.17 4.91 0.27c19.3 4.14 21.4 33.67-11.97 68.11z"/>
							<path id="&lt;Path&gt;" class="s5" d="m308.32 319.27c-1.8-2.13-5.26-2.81-7.39-0.76-1.9 1.83-1.69 5.25 1.13 6.5 2.09 0.92 4.7-1.39 3.11-3.55-0.24-0.34-0.72 0.08-0.55 0.49 0.6 1.43-1.32 2.05-2.22 1.27-0.71-0.62-0.92-1.67-0.58-2.49 0.53-1.29 1.95-1.69 3.21-1.36 1.29 0.33 2.35 1.38 2.7 2.67 0.4 1.44-0.29 2.82-1.01 4.02-0.17 0.28 0.2 0.66 0.44 0.5 2.18-1.48 2.98-5.13 1.16-7.29z"/>
						</g>
						<path id="&lt;Path&gt;" class="s4" d="m253.99 224.44l-12.44-14.56c0 0-4.61-15.09-10.5-18.73-5.9-3.63-11.87-27.15-20.52-25.07-8.65 2.08-14.73 28.85-11.93 38.03 2.79 9.18 17.73 20.03 17.73 20.03l10.83 20.66c0 0 23.39-6.47 26.83-20.36z"/>
						<path id="&lt;Path&gt;" class="s1" d="m395.27 257.25c-2.61-0.07-9.27-27.94-44.85-37.95-3.3-0.93 36.78-33.11 54.22-35.44 17.44-2.32 24.57 14.16 20.89 31.08-3.68 16.92-26.61 42.41-30.26 42.31z"/>
					</g>
					<g id="&lt;Group&gt;">
						<g id="&lt;Group&gt;">
							<path id="&lt;Path&gt;" class="s6" d="m579.25 470.73l-112.58-0.04v0.04h-91.99c11.43-50.91 34.23-93.52 34.23-93.52l99.93-26.67c0 0 57.22 38.65 70.41 120.19z"/>
							<path id="&lt;Path&gt;" class="s7" d="m460.09 470.73h-3.88c-1.05-8.89-1.49-18.57-1.92-28.32-13.82-1.21-26.08-9.83-35.95-18.91-0.74-0.71 0.36-1.76 1.1-1.14 10.85 9.13 23.22 12.65 36.18 17.35q0.29 0.12 0.51 0.35c0.2 0.12 0.4 0.28 0.43 0.55 2.12 8.97 2.94 20.01 3.53 30.12z"/>
						</g>
						<g id="&lt;Group&gt;">
							<path id="&lt;Path&gt;" class="s1" d="m414.41 179.04c-15.01 4.25-24.52 20.1-31.51 35.99-6.98 15.89-22.88 48.58-21.17 72.47 1.32 18.46 28.64 35.61 28.64 35.61 0 0 12.56 44.78 18.54 54.1 8.96 13.98 68.06 30.11 101.33-23.22 3.43-5.51-2.88-109.27-22.11-143.67-15.16-27.13-38.1-41.38-73.72-31.28z"/>
							<g id="&lt;Group&gt;">
								<path id="&lt;Path&gt;" class="s8" d="m458.13 308.29c-10.09 4.54-18.12 10.9-29.72 11.34-10.02 0.38-19.67-3.07-28.86-6.66-0.4-0.16-0.63 0.46-0.28 0.68 9.16 5.82 19.53 9.42 30.51 8.73 11.31-0.71 19.92-6.85 28.77-13.37 0.43-0.32 0.07-0.94-0.42-0.72z"/>
								<path id="&lt;Path&gt;" class="s8" d="m407.59 319.6c-4.3-2.63-10.93-3.04-15.53-1-0.35 0.15-0.18 0.75 0.19 0.72 2.38-0.19 4.71-0.56 7.1-0.37 2.72 0.21 5.13 1.15 7.71 1.9 0.75 0.22 1.18-0.85 0.53-1.25z"/>
							</g>
							<path id="&lt;Path&gt;" class="s8" d="m452.75 194.24c-6.63 8.02-14.17 14.49-24.13 18.04-12.3 4.38-28.66 2.02-28.95-14.36-0.01-0.22-0.34-0.22-0.35 0-0.44 11.44 7.83 19.97 19.44 18.93 13.55-1.21 27.15-11.16 34.56-22.17 0.22-0.34-0.31-0.76-0.57-0.44z"/>
						</g>
						<g id="&lt;Group&gt;">
							<path id="&lt;Compound Path&gt;" class="s2" d="m371.71 470.74h193.15c0 0-44.87-97.41-53.74-106.78q-0.8-0.84-1.69-2.48v-0.03c-1.21-8.39 6.98-11.68 9.2-10.94 2.21 0.74-4.91-12.06-5.77-12.74-0.83-0.65-11.38 1.16-13.54-6.21-0.03-0.02-0.06-0.08-0.06-0.11-8.01-29.36-16.52-69.32-19.54-81.71-5.97-24.57-13.36-50.96-30.89-73.96-6.12-8.04-28.23-15.28-46.64 4.4-11.18 11.98-50.67 84.07-41.8 109.17 8.86 25.1 27.34 33.23 27.96 35.68 0.62 2.48 14.46 43.01 13.84 55.19-0.65 12.18-28 64.24-30.48 90.52zm15.52-238.09c-1.72-2.69 18.44-48.51 27.16-53.62 6-3.49 24.96-4.26 28.33-0.74 3.37 3.52 3.04 50.43-1.81 52.29-4.85 1.84-51.94 4.79-53.68 2.07z"/>
							<g id="&lt;Group&gt;">
								<path id="&lt;Path&gt;" class="s3" d="m458.13 308.29c-10.09 4.54-18.12 10.9-29.72 11.34-10.02 0.38-19.67-3.07-28.86-6.66-0.4-0.16-0.63 0.46-0.28 0.68 9.16 5.82 19.53 9.42 30.51 8.73 11.31-0.71 19.92-6.85 28.77-13.37 0.43-0.32 0.07-0.94-0.42-0.72z"/>
								<path id="&lt;Path&gt;" class="s3" d="m407.59 319.6c-4.3-2.63-10.93-3.04-15.53-1-0.35 0.15-0.18 0.75 0.19 0.72 2.38-0.19 4.71-0.56 7.1-0.37 2.72 0.21 5.13 1.15 7.71 1.9 0.75 0.22 1.18-0.85 0.53-1.25z"/>
							</g>
						</g>
					</g>
					<g id="&lt;Group&gt;">
						<g id="&lt;Group&gt;">
							<path id="&lt;Path&gt;" class="s4" d="m408.95 196.24c0 0 3.28 8.98 11.55 7.6 14.3-2.4 22.67-17.5 23.27-21.05 0.23-1.53-0.82-14.32-2.86-26.63q-0.33-1.84-0.65-3.69-0.32-1.83-0.68-3.56-0.47-2.33-0.95-4.61c-2.41-11.54-4.56-21.39-4.56-21.39l-4.84 3.25-33.42 24.4 8.32 28.92 0.49 1.77 0.17 0.57 2.55 8.72 0.03 0.07z"/>
							<path id="&lt;Path&gt;" class="s5" d="m404.62 181.25c4.78 0.55 9.8-0.02 14.91-1.98 10.85-4.11 17.06-13.07 21.38-23.11q-0.33-1.84-0.65-3.69-0.32-1.83-0.68-3.56-0.47-2.33-0.95-4.61c-2.41-11.54-4.56-21.39-4.56-21.39l-4.84 3.25-33.42 24.4 8.32 28.92z"/>
						</g>
						<g id="&lt;Group&gt;">
							<path id="&lt;Path&gt;" class="s4" d="m354.45 108.42c1.17 53.3 31.08 55.59 40.17 56.91 10.33 1.5 50.47-0.93 54.82-54.07 4.35-53.13-20.8-69.44-44.69-70.15-23.89-0.72-51.46 14.01-50.3 67.31z"/>
							<g id="&lt;Group&gt;">
								<g id="&lt;Group&gt;">
									<path id="&lt;Path&gt;" class="s0" d="m397.83 105.08c5.85 0.01 5.41 11.72-0.01 11.71-5.34 0-4.9-11.71 0.01-11.71z"/>
									<path id="&lt;Path&gt;" class="s0" d="m399.6 105.52c1.02 0.46 2.1 1.38 3.24 1.31 1.31-0.07 2.12-1.34 2.8-2.54 0.07-0.13 0.17-0.05 0.2 0.09 0.35 2.03-0.11 4.25-2.25 4.89-1.95 0.59-3.66-0.99-4.49-2.96-0.15-0.36 0.09-0.97 0.5-0.79z"/>
								</g>
								<g id="&lt;Group&gt;">
									<path id="&lt;Path&gt;" class="s0" d="m366.69 103.67c-5.85-0.09-5.59 11.63-0.16 11.7 5.34 0.08 5.07-11.64 0.16-11.7z"/>
									<path id="&lt;Path&gt;" class="s0" d="m364.8 104.16c-0.98 0.55-1.98 1.55-3.12 1.59-1.31 0.03-2.22-1.16-3-2.3-0.08-0.12-0.18-0.03-0.19 0.11-0.18 2.05 0.46 4.22 2.65 4.68 1.99 0.42 3.56-1.3 4.22-3.33 0.12-0.38-0.17-0.96-0.56-0.75z"/>
								</g>
								<path id="&lt;Path&gt;" class="s5" d="m395.44 135.48c-0.78 0.93-1.53 2.18-2.83 2.42-1.24 0.23-2.77-0.19-3.97-0.52-0.12-0.03-0.22 0.1-0.14 0.2 1.08 1.29 3.14 1.96 4.78 1.5 1.61-0.44 2.28-1.94 2.52-3.47 0.04-0.22-0.25-0.27-0.36-0.13z"/>
								<path id="&lt;Path&gt;" class="s0" d="m363.18 93.8c1.24-0.19 2.36-0.58 3.57-0.9 1.37-0.36 2.49-0.5 3.47-1.61 0.52-0.59 0.43-1.75-0.1-2.31-1.23-1.31-3.01-1.29-4.67-0.92-1.8 0.39-3.09 1.16-4.24 2.61-1.11 1.4 0.33 3.38 1.97 3.13z"/>
								<path id="&lt;Path&gt;" class="s0" d="m402.99 95.49c-1.24-0.22-2.35-0.62-3.56-0.96-1.36-0.37-2.48-0.54-3.44-1.66-0.52-0.6-0.41-1.75 0.12-2.31 1.25-1.29 3.04-1.24 4.69-0.85 1.8 0.42 3.08 1.21 4.2 2.67 1.09 1.42-0.37 3.38-2.01 3.11z"/>
								<g id="&lt;Group&gt;">
									<path id="&lt;Path&gt;" class="s0" d="m380.94 129.95c0 0 2.38 3.5 5.76 4.86 1.25 0.51 2.61 0.75 4.05 0.42 2.97-0.65 3.16-3.34 2.72-5.67-0.36-1.91-1.17-3.58-1.17-3.58 0 0-4.46 3.83-11.36 3.97z"/>
									<path id="&lt;Path&gt;" class="s9" d="m386.7 134.81c1.25 0.51 2.61 0.75 4.05 0.42 2.97-0.65 3.16-3.34 2.72-5.67-3.17 0.19-6.37 2.2-6.77 5.25z"/>
								</g>
								<g id="&lt;Group&gt;">
									<path id="&lt;Path&gt;" class="s5" d="m379.72 123.01c0 0-0.52 5.45-0.41 8 0.01 0.24 0.64 0.33 1.51 0.34q0.05 0.03 0.1 0c4.54 0.52 9.01-1.23 11.6-5.03 0.17-0.26-0.17-0.51-0.39-0.34-3.27 2.61-6.96 3.41-10.96 3.65-0.21-0.7 1.2-9.3 0.79-9.32-1.4-0.06-4.11 1.01-5.74 1.56 0.75-11.38 3.32-22.55 3.9-33.89 0.01-0.4-0.57-0.5-0.67-0.14-3.53 11.52-4.68 24.59-5.76 36.33-0.15 1.46 5.03-0.68 6.03-1.16z"/>
								</g>
							</g>
							<path id="&lt;Path&gt;" class="s0" d="m447.6 111.5c-5.95 0-22.33-15.39-24.48-43.96 0 0 3.71 25.52 5.86 29.17 2.15 3.65-9.16-8.66-11.22-31.68 0 0-12.23 9.97-22.94 13.67-10.72 3.69-17.39 3.98-18.21 3.24-0.83-0.74 14.9-6.74 18.94-11.99 0 0-28.18 15.18-41.47 16.98-1.54 0.21-5.25-31.45 14.6-46.15 19.85-14.7 53.42-2.06 62.71 5.91 0 0 10.41 0.86 22.54 15.48 12.12 14.61 0.07 49.34-6.33 49.33z"/>
							<g id="&lt;Group&gt;">
								<path id="&lt;Compound Path&gt;" class="s1" d="m395.78 126.78c-8.42-1.4-14.14-9.38-12.75-17.8v-0.01c1.4-8.42 9.38-14.14 17.81-12.74 8.42 1.39 14.14 9.37 12.75 17.8-1.18 7.12-7.08 12.31-13.96 12.9q-1.89 0.17-3.85-0.15zm-10.7-17.47c-1.21 7.3 3.75 14.22 11.04 15.43 7.3 1.21 14.22-3.75 15.43-11.05 1.2-7.3-3.75-14.22-11.05-15.42q-1.69-0.28-3.33-0.14c-5.97 0.52-11.07 5.01-12.09 11.18z"/>
								<path id="&lt;Compound Path&gt;" class="s1" d="m363.1 125.65c-6.35-0.2-11.3-7.31-11.03-15.84 0.13-4.07 1.41-7.88 3.61-10.72 2.28-2.93 5.25-4.5 8.4-4.39 3.14 0.1 6.02 1.84 8.11 4.92 2.02 2.96 3.06 6.84 2.93 10.92-0.26 8.07-5.1 14.58-11 15.08q-0.5 0.05-1.02 0.03zm-5.78-25.29c-1.94 2.5-3.06 5.88-3.18 9.52-0.23 7.39 3.82 13.54 9.03 13.7 5.23 0.17 9.64-5.71 9.88-13.11 0.11-3.64-0.8-7.08-2.57-9.69-1.71-2.51-4-3.93-6.46-4.01q-0.4-0.01-0.79 0.02c-2.18 0.19-4.25 1.43-5.91 3.57z"/>
								<path id="&lt;Path&gt;" class="s1" d="m383.5 110.78l1.38-1.54c-2.29-2.05-7.63-4.87-11.54-0.94l1.47 1.46c3.49-3.53 8.48 0.84 8.69 1.02z"/>
								<path id="&lt;Path&gt;" class="s1" d="m453.98 112.57l1.68-1.2c-0.56-0.78-5.61-7.68-10.29-7.77-4.38-0.07-31.48 6.44-32.63 6.72l0.49 2.01c7.77-1.87 28.72-6.72 32.1-6.66 3.09 0.06 7.29 5.01 8.65 6.9z"/>
							</g>
							<g id="&lt;Group&gt;">
								<path id="&lt;Path&gt;" class="s4" d="m440.97 117.75c0 0 9.76-17.8 17.72-14.49 7.95 3.31 1.87 28.23-6.59 32.47-8.45 4.24-12.53-3.51-12.53-3.51z"/>
								<path id="&lt;Path&gt;" class="s5" d="m456.77 110.36c0.14-0.03 0.19 0.17 0.07 0.23-5.91 3.18-8.54 9.26-10.17 15.45 1.59-2.49 3.96-4.01 7.26-2.16 0.17 0.1 0.04 0.37-0.13 0.35-2.59-0.27-4.37 0.37-5.86 2.58-1.06 1.57-1.69 3.48-2.37 5.23-0.23 0.58-1.26 0.4-1.12-0.26q0.02-0.08 0.03-0.15c-1.01-7.86 3.91-19.55 12.29-21.27z"/>
							</g>
						</g>
					</g>
					<g id="&lt;Group&gt;">
						<g id="&lt;Group&gt;">
							<path id="&lt;Path&gt;" class="s4" d="m594.05 320.18c-6.09 21.44-54.3-5.23-65.18-16.91-12.83-13.71-37.04-34.76-52.26-51.43-4.23-4.64-7.78-8.96-10.2-12.65-11.12-17.12-18.86-42.22-5.89-50.64 5.18-3.37 17.06 1.54 23.95 4.99 16.85 8.4 34.94 22.29 51.46 37.96 34.59 32.75 62.44 73.43 58.12 88.68z"/>
							<path id="&lt;Path&gt;" class="s5" d="m535.93 231.5c-21.07 1.36-42.06 8.31-59.32 20.34-4.23-4.64-7.78-8.96-10.2-12.65-11.12-17.12-18.86-42.22-5.89-50.64 5.18-3.37 17.06 1.54 23.95 4.99 16.85 8.4 34.94 22.29 51.46 37.96z"/>
						</g>
						<path id="&lt;Path&gt;" class="s1" d="m471.1 249.75c2.48-0.07 15.43-23.86 49.34-33.4 3.15-0.89-27.27-26.71-51.67-33.77-19.76-5.73-18.38 11.34-16.45 27.72 2.37 20.18 15.3 39.55 18.78 39.45z"/>
					</g>
					<g id="&lt;Group&gt;">
						<path id="&lt;Path&gt;" class="s4" d="m531.71 336.87c-22.11-7.25-46.36-19.31-66.64-29.25-10.31-5.05-3.74-32.05 12.08-31.79 38.99 0.64 77.28-1.67 100.27 19.5 13.53 12.46 19.02 16.26 16.11 27.4-4.98 19.06-26.41 25.76-61.82 14.14z"/>
						<path id="&lt;Path&gt;" class="s4" d="m497.41 276.63l-31.22-2.96c0 0-12.97-6.88-26.16-7.7-13.19-0.82-31.37 7.15-32.05 17.33-0.69 10.18 4.12 6.75 9.78 7.24 5.66 0.48 17.94 9.54 26.93 9.36 0 0 2.91 1.17 11.02 4.08 8.11 2.92 34.34 13.94 34.34 13.94 0 0 19.47-17.61 7.36-41.29z"/>
						<path id="&lt;Path&gt;" class="s5" d="m584.73 320.09c-1.81-2.14-5.26-2.81-7.39-0.76-1.9 1.82-1.69 5.25 1.13 6.5 2.09 0.92 4.7-1.39 3.11-3.56-0.24-0.33-0.72 0.09-0.55 0.49 0.6 1.44-1.32 2.06-2.22 1.28-0.71-0.62-0.92-1.68-0.58-2.49 0.53-1.29 1.95-1.69 3.21-1.36 1.29 0.33 2.35 1.38 2.7 2.66 0.4 1.44-0.29 2.82-1.01 4.02-0.17 0.28 0.2 0.66 0.44 0.5 2.18-1.48 2.98-5.12 1.16-7.28z"/>
						<path id="&lt;Path&gt;" class="s5" d="m584.66 302.21c-8.69-10.21-20.5-18.3-33.47-21.84-15.5-4.24-32.69-4.45-48.65-4.49-0.16-0.01-0.16 0.22 0 0.24 15.37 1.3 30.73 1.86 45.79 5.53 14.37 3.5 24.52 12.13 35.81 21.07 0.37 0.29 0.82-0.15 0.52-0.51z"/>
						<g id="&lt;Group&gt;">
							<path id="&lt;Path&gt;" class="s10" d="m395.81 284.54c0 0 9.12-2.66 12.1-2.61 2.98 0.06 24.25 14.57 25.04 16.33 0.79 1.75-0.49 9.99-0.49 9.99"/>
							<path id="&lt;Path&gt;" class="s11" d="m482.31 344.89c-9.35 13.65-48.8 2.88-88.12-24.06-39.32-26.93-63.61-59.83-54.26-73.48 9.34-13.65 48.8-2.88 88.12 24.06 39.32 26.93 63.61 59.83 54.26 73.48z"/>
							<path id="&lt;Path&gt;" class="s12" d="m482.31 344.89c-9.35 13.65-48.8 2.88-88.12-24.06-39.32-26.93-63.61-59.83-54.26-73.48 9.34-13.65 48.8-2.88 88.12 24.06 39.32 26.93 63.61 59.83 54.26 73.48z"/>
						</g>
					</g>
				</g>
				<g id="&lt;Group&gt;">
					<g id="&lt;Group&gt;">
						<g id="&lt;Group&gt;" style="opacity: .5">
							<path id="&lt;Path&gt;" class="s13" d="m291.11 216.47c1.38 11.28 9.57 20.06 19.02 25.65 5.52 3.28 12.58 4.37 17.58 8.4 4.72 3.78 6.34 10.17 5.67 15.97-1.49 12.87-13.22 22.2-22.01 30.51-13.54 12.8-30.56 32.76-19.59 52.51 5.12 9.23 15.18 15.32 24.71 19.11 10.65 4.22 22.11 5.95 33.53 6.5 13.2 0.64 27.95-1.24 36.38 11.26 7.54 11.16 6.82 19.29 2.78 31.37 0 0 3.36 0.85 3.63 0.51 3.87-5.06 8.89-15.24 11.2-21.12 5.15-12.09 6.5-24.82-3.99-35.35-6.14-6.17-14.37-9.58-21.39-14.56-9.1-6.45-13.62-15.39-10.16-26.56 3.57-11.54 12.69-20 18.31-30.48 5.28-9.88 5.57-20.17 0.59-30.26-4.3-8.69-11.35-15.93-19.74-20.75-9.61-5.5-19.99-6.51-30.85-6.79-12.27-0.33-27.03-1.05-34.6-12.35-7.39-11.05-4.56-25.15-1.47-37.12 0.12-0.42-0.54-0.64-0.71-0.25-4.83 10.54-10.36 21.83-8.89 33.8z"/>
						</g>
						<path id="&lt;Path&gt;" class="s14" d="m461.58 384.26c0 0-4.78 70.03-27.13 70.03-22.35 0-59.16 0-59.16 0 0 0-36.81 0-59.16 0-22.35 0-27.14-70.03-27.14-70.03z"/>
						<g id="&lt;Group&gt;">
							<path id="&lt;Path&gt;" class="s15" d="m308.27 400.67h57.15"/>
							<path id="&lt;Path&gt;" class="s16" d="m352.54 407.32h-40.25c-1.13 0-2.05-0.92-2.05-2.05v-9.21c0-1.13 0.92-2.04 2.05-2.04h40.25c1.13 0 2.04 0.91 2.04 2.04v9.21c0 1.13-0.91 2.05-2.04 2.05z"/>
						</g>
					</g>
					<g id="&lt;Group&gt;">
						<g id="&lt;Group&gt;">
							<path id="&lt;Path&gt;" class="s17" d="m286.12 473.68l9.84-17.37h158.66l9.84 17.37"/>
							<path id="&lt;Path&gt;" class="s17" d="m314.37 473.68l6.73-17.37h108.38l6.73 17.37"/>
						</g>
					</g>
					<g id="&lt;Group&gt;">
						<g id="&lt;Group&gt;">
							<g id="&lt;Group&gt;">
								<path id="&lt;Path&gt;" class="s18" d="m196.49 450.17l-20.51 12.57c0 0-0.68 14.68-17.46 11.02 0 0-7.46 17.02-25.43 9.31 0 0-19.31 12.28-24.73-0.44-5.41-12.73 15.72-17.71 15.72-17.71 0 0 10.03-14.09 27.55-7.46 0 0 10.63-12.74 22.35-2.94z"/>
								<path id="&lt;Path&gt;" class="s1" d="m118.44 477.99q9.58-3.95 19.25-7.66 9.67-3.72 19.41-7.26 9.74-3.53 19.57-6.83c6.55-2.2 13.14-4.3 19.82-6.07l-4.91 1.65-4.89 1.71-9.76 3.47-19.47 7.05-19.49 7.04q-9.74 3.51-19.53 6.9z"/>
							</g>
							<g id="&lt;Group&gt;">
								<path id="&lt;Path&gt;" class="s18" d="m196.6 448.78l-18.27-15.65c0 0 1.64-14.61-15.5-13.64 0 0-4.68-17.99-23.65-13.2 0 0-17.13-15.18-24.48-3.47-7.36 11.71 12.73 19.96 12.73 19.96 0 0 7.68 15.5 26.02 11.72 0 0 8.49 14.26 21.61 6.43z"/>
								<path id="&lt;Path&gt;" class="s1" d="m123.92 408.99q9.13 4.89 18.2 9.9l18.13 10.02 18.12 10.03 9.08 4.98 4.56 2.45 4.59 2.41c-6.32-2.81-12.5-5.92-18.62-9.12q-9.18-4.81-18.24-9.84-9.06-5.03-18.02-10.23-8.97-5.18-17.8-10.6z"/>
							</g>
							<g id="&lt;Group&gt;">
								<path id="&lt;Path&gt;" class="s18" d="m200.3 450.11l-32.32 2.04c0 0-8.55 17.37-26.89 4.12 0 0-17.97 16.63-35.61-2.15 0 0-29.79 4.66-29.63-13.56 0.17-18.22 28.31-13.1 28.31-13.1 0 0 19.53-11.73 37.2 5.49 0 0 19.55-9.78 28.53 8.23z"/>
								<path id="&lt;Path&gt;" class="s1" d="m94.68 437.58c8.87 0.13 17.74 0.58 26.59 1.24q3.32 0.25 6.64 0.52l6.63 0.6c2.21 0.2 4.42 0.46 6.62 0.68q3.31 0.35 6.62 0.74c4.41 0.51 8.81 1.11 13.21 1.7l6.58 0.98 3.29 0.5 3.29 0.55c8.76 1.4 17.46 3.2 26.12 5.14l-3.29-0.52-3.28-0.54-3.28-0.55-3.29-0.49-6.57-1.02-6.58-0.95c-8.77-1.25-17.56-2.41-26.36-3.42-4.4-0.55-8.81-1.01-13.21-1.49l-6.61-0.7-6.62-0.65q-6.62-0.64-13.24-1.22c-4.42-0.41-8.84-0.75-13.26-1.1z"/>
							</g>
						</g>
						<path id="&lt;Path&gt;" class="s19" d="m223.19 422.11q0.97 0.08 1.9 0.21c20.15 2.76 21.51 22.5 25.89 26.9 4.52 4.54 10.89 3.3 10.61 6.76-0.27 3.46-6.37 1.24-11.54 5-4.04 2.95-7.71 15.99-19.58 20.75q-1.43 0.58-3.04 0.98c-2.15 0.53-4.54 0.81-7.2 0.75q-0.93-0.02-1.9-0.1-0.53-0.04-1.04-0.09c-8.39-0.85-14.76-3.74-19.32-7.91q-1.5-1.36-2.73-2.9c-4.96-6.12-6.88-14.13-6.23-22.24 1.04-13.15 8.69-24.94 23.7-27.66q1.45-0.27 2.99-0.41 3.04-0.3 6.45-0.11 0.51 0.03 1.04 0.07z"/>
						<path id="&lt;Path&gt;" class="s1" d="m228.96 463.49l2.94 0.23-1.43 18.01q-1.43 0.58-3.04 0.98z"/>
						<path id="&lt;Path&gt;" class="s1" d="m218.28 470.82l2.94 0.24-0.99 12.4q-0.93-0.02-1.9-0.1-0.53-0.04-1.04-0.09z"/>
						<path id="&lt;Path&gt;" class="s1" d="m223.19 422.11q0.97 0.08 1.9 0.21l-0.99 12.4-2.94-0.23 0.99-12.45q0.51 0.03 1.04 0.07z"/>
						<path id="&lt;Path&gt;" class="s1" d="m215.7 422.15l-0.71 8.89-2.94-0.23 0.66-8.25q1.45-0.27 2.99-0.41z"/>
						<path id="&lt;Path&gt;" class="s1" d="m196.02 462.61l2.94 0.24-0.99 12.51q-1.5-1.36-2.73-2.9z"/>
					</g>
					<path id="&lt;Path&gt;" class="s16" d="m667.75 489.2h-570.53v-18.47h570.53z"/>
					<g id="&lt;Group&gt;">
						<path id="&lt;Path&gt;" class="s20" d="m221.39 457.98c41.77 0.92 84.67 2.71 84.67 2.71 4.48 6.93-0.56 14.36-0.56 14.36 0 0-43.33-0.89-84.72-1.75q-2.18-0.04-4.35-0.09-1.48-0.03-2.95-0.06-4.4-0.09-8.7-0.18-1.49-0.03-2.96-0.06c-6.06-0.13-11.91-0.25-17.4-0.37q-1.49-0.03-2.95-0.06c-16.99-0.35-29.94-0.63-33.7-0.72-18.89-0.45-84.74 24.62-84.74 24.62 0 0-6.33 1.33-7.45-10.06 0 0 26.28-8.98 51.35-16.79l-63.5 13.38c0 0-3.96-3.19-2.93-10.02l36.85-6.98-38.93 0.17c0 0-2.59-3.63 0.45-11.34l69.55 2.07-56.38-8.59c0 0-0.83-6.1 1.67-10.11 0 0 37.41 8.19 86.48 15.96l-59.46-16.36c0 0-0.71-4.24 3.39-8.96 0 0 58.36 24.85 97.95 28.33q1.49 0.14 2.95 0.22 2.06 0.13 4.03 0.17h0.04q6.47 0.05 13.34 0.16 1.47 0.01 2.95 0.04 4.31 0.07 8.7 0.16 1.48 0.02 2.96 0.06 2.17 0.04 4.35 0.09z"/>
						<path id="&lt;Path&gt;" class="s21" d="m84.12 428.75c0 0 58.36 24.85 97.95 28.33l-0.6 15.4c-16.99-0.35-29.94-0.63-33.7-0.72-18.89-0.45-84.74 24.62-84.74 24.62 0 0-6.33 1.33-7.45-10.06 0 0 26.28-8.98 51.35-16.79l-63.5 13.38c0 0-3.96-3.19-2.93-10.02l36.85-6.98-38.93 0.17c0 0-2.59-3.63 0.45-11.34l69.55 2.07-56.38-8.59c0 0-0.83-6.1 1.67-10.11 0 0 37.41 8.19 86.48 15.96l-59.46-16.36c0 0-0.71-4.24 3.39-8.96z"/>
						<path id="&lt;Path&gt;" class="s21" d="m202.43 457.63l-0.61 15.28c-6.06-0.13-11.91-0.25-17.4-0.37l0.6-15.24q2.06 0.13 4.03 0.17h0.04q6.47 0.05 13.34 0.16z"/>
						<path id="&lt;Path&gt;" class="s21" d="m214.08 457.83l-0.6 15.32q-4.4-0.09-8.7-0.18l0.6-15.3q4.31 0.07 8.7 0.16z"/>
						<path id="&lt;Path&gt;" class="s21" d="m221.39 457.98l-0.61 15.32q-2.18-0.04-4.35-0.09l0.61-15.32q2.17 0.04 4.35 0.09z"/>
					</g>
					<g id="&lt;Group&gt;">
						<path id="&lt;Path&gt;" class="s22" d="m650.86 406.74v56.63c0 4.04-3.31 7.36-7.36 7.36l-47.84-0.05h-47.88c-4.05 0-7.32-3.27-7.32-7.31v-56.63c0-4.05 3.27-7.32 7.32-7.32h4.42v-5.36h43.46v-0.04l43.43 0.04v5.36h4.41c4.05 0 7.36 3.27 7.36 7.32z"/>
						<path id="&lt;Path&gt;" class="s16" d="m642.12 393.8h-93.02v-9.54h93.02z"/>
						<path id="&lt;Path&gt;" class="s23" d="m650.86 454.52h-110.4v-35.78h110.4z"/>
					</g>
					<g id="&lt;Group&gt;">
						<path id="&lt;Path&gt;" class="s24" d="m535.17 419.42v45.4c0 3.25-1.21 5.91-2.68 5.91l-17.48-0.04h-17.49c-1.47 0-2.67-2.62-2.67-5.87v-45.4c0-3.24 1.2-5.86 2.67-5.86h1.62v-4.3h15.87v-0.03l15.86 0.03v4.3h1.62c1.47 0 2.68 2.62 2.68 5.86z"/>
						<path id="&lt;Path&gt;" class="s16" d="m531.98 409.05h-33.97v-7.64h33.97z"/>
						<path id="&lt;Path&gt;" class="s23" d="m535.17 457.73h-40.32v-28.68h40.32z"/>
					</g>
				</g>
			</g>
		</g>
	</g>
</svg>