<svg version="1.0" xmlns="http://www.w3.org/2000/svg"
 width="1968.000000pt" height="472.000000pt" viewBox="0 0 1968.000000 472.000000"
 preserveAspectRatio="xMidYMid meet">

<g transform="translate(0.000000,472.000000) scale(0.100000,-0.100000)"
fill="#FF596D" stroke="none">
<path d="M11961 4501 l-45 -6 -17 -80 c-25 -113 -72 -263 -197 -630 -61 -176
-153 -444 -205 -595 -52 -151 -107 -322 -122 -380 -45 -165 -162 -338 -356
-526 -190 -183 -407 -295 -616 -318 l-61 -7 -11 51 c-12 55 -15 238 -5 288 6
28 9 30 66 36 154 18 349 101 470 200 171 142 284 350 296 548 3 66 1 100 -12
140 -58 178 -219 283 -431 282 -162 -1 -283 -60 -441 -218 -152 -151 -267
-342 -331 -551 -26 -84 -32 -94 -99 -161 -75 -76 -134 -107 -232 -120 l-51 -6
29 88 c43 135 61 236 67 374 7 154 -7 245 -53 340 -41 86 -109 156 -189 196
-52 25 -74 29 -158 32 -197 7 -339 -65 -496 -254 l-69 -83 -4 79 c-3 68 -7 84
-33 121 -57 80 -150 126 -280 136 -38 3 -85 1 -104 -4 -32 -8 -34 -11 -38 -63
-6 -76 -45 -249 -109 -479 -53 -188 -58 -201 -126 -310 -110 -176 -241 -346
-352 -456 -113 -111 -193 -165 -261 -173 l-45 -5 0 74 c0 111 24 185 234 724
83 211 119 340 120 426 1 56 -3 72 -29 114 -60 96 -189 155 -340 155 -112 0
-115 -1 -115 -64 0 -61 -23 -147 -120 -446 -64 -197 -82 -239 -142 -340 -246
-412 -521 -637 -816 -669 l-70 -7 -19 60 c-24 82 -24 270 0 384 58 272 209
570 383 752 83 87 183 160 218 160 19 -1 18 -3 -7 -16 -21 -11 -27 -20 -21
-32 14 -31 16 -173 4 -234 -16 -84 -43 -141 -90 -191 -22 -24 -40 -48 -40 -52
0 -4 33 -5 73 -3 51 2 86 11 121 28 159 80 245 316 173 472 -64 140 -233 228
-438 228 -167 0 -290 -59 -445 -214 -154 -154 -264 -335 -338 -556 -40 -118
-101 -217 -221 -354 -211 -241 -492 -404 -719 -418 l-50 -3 -12 40 c-13 42
-18 225 -8 286 6 36 7 37 66 43 130 15 304 81 414 157 160 110 297 305 339
482 66 279 -74 484 -361 529 -328 51 -709 -309 -854 -808 -27 -93 -186 -323
-329 -476 -123 -132 -248 -214 -342 -225 -57 -7 -55 -14 -39 117 22 172 72
307 258 695 168 348 184 403 142 484 -39 78 -128 131 -350 212 -170 61 -230
86 -230 95 0 3 8 18 19 32 36 51 99 187 126 272 32 102 43 247 26 331 -18 85
-66 158 -130 196 -107 64 -228 65 -350 3 -270 -137 -361 -580 -176 -856 l44
-65 -42 -26 c-116 -74 -305 -152 -465 -192 -526 -134 -1038 -60 -1442 207
-107 70 -275 237 -322 317 -86 150 -121 281 -122 457 0 69 -4 124 -8 122 -4
-3 -8 -1 -8 5 0 5 6 12 13 15 6 3 -6 3 -28 -1 -201 -30 -345 -217 -345 -446 0
-165 85 -348 226 -491 297 -299 824 -472 1504 -493 203 -6 331 7 510 52 216
54 452 154 633 269 l88 55 120 -59 c66 -33 128 -69 139 -80 43 -43 23 -125
-100 -415 -123 -288 -180 -465 -195 -600 -8 -71 13 -182 45 -246 28 -55 111
-142 164 -172 148 -86 348 -82 530 10 27 13 54 29 60 34 6 5 45 35 86 68 41
32 115 99 164 149 l89 91 21 -63 c60 -179 206 -315 381 -357 118 -27 288 -9
428 48 132 53 366 208 497 330 32 29 60 50 63 46 2 -4 12 -31 21 -60 38 -115
147 -245 254 -301 107 -56 156 -67 287 -66 111 1 129 4 245 41 69 22 148 52
175 66 67 34 195 129 279 207 53 51 69 61 77 49 5 -8 9 -21 9 -29 0 -8 13 -43
30 -78 80 -169 281 -275 461 -242 77 13 206 72 259 118 79 68 134 111 138 108
2 -2 -35 -123 -83 -268 -161 -489 -254 -843 -271 -1025 -14 -147 38 -272 135
-330 59 -35 133 -49 195 -36 l39 8 23 115 c24 118 94 375 165 605 113 363 273
856 293 900 l22 49 24 -49 c51 -105 160 -176 307 -197 226 -33 489 106 693
366 l52 66 51 0 c115 0 283 36 400 85 14 6 17 2 17 -22 0 -47 28 -143 64 -218
57 -121 177 -231 294 -269 261 -86 557 11 919 302 56 45 104 82 107 82 3 0 6
-17 6 -37 0 -60 28 -173 55 -229 49 -101 143 -155 212 -122 24 11 31 26 53
106 14 50 27 92 30 92 3 0 17 -20 31 -44 54 -88 175 -145 326 -154 158 -8 299
33 448 133 71 47 217 185 271 256 19 25 28 28 144 38 133 12 213 29 298 63 29
11 55 19 57 17 2 -3 11 -38 19 -79 9 -41 34 -113 57 -158 118 -240 377 -346
664 -272 150 38 371 166 560 323 l89 75 21 -72 c35 -121 96 -209 185 -266 146
-94 356 -93 505 1 28 17 52 34 55 38 3 3 53 53 111 109 l107 104 33 -63 c47
-87 144 -188 216 -224 47 -24 74 -30 148 -33 78 -4 101 -1 170 23 83 28 132
53 175 92 14 12 59 51 101 87 l76 64 12 -50 c12 -52 39 -100 75 -131 79 -67
233 -103 329 -76 32 8 37 14 37 39 0 42 55 191 111 300 81 159 225 368 377
550 88 105 323 360 332 360 4 0 -25 -97 -66 -216 -118 -350 -166 -578 -166
-794 0 -74 7 -155 16 -198 48 -230 217 -400 446 -448 108 -23 284 -14 414 20
380 102 847 634 1022 1164 157 477 171 900 39 1162 -72 143 -207 247 -350 269
-138 21 -283 -36 -351 -138 -27 -42 -25 -61 7 -61 31 0 105 -39 153 -81 97
-86 171 -242 202 -428 35 -213 -1 -544 -87 -802 -70 -211 -196 -416 -349 -569
-154 -154 -305 -241 -479 -276 -96 -19 -228 -15 -243 8 -48 74 -56 279 -19
458 30 141 88 317 179 540 153 378 185 472 203 597 17 123 -23 198 -138 255
-57 28 -79 33 -160 36 -92 4 -96 4 -166 -32 -133 -66 -314 -237 -527 -496 -55
-68 -79 -87 -66 -54 24 63 66 267 66 324 0 159 -132 260 -339 260 -47 0 -91
-4 -97 -8 -6 -4 -14 -36 -17 -72 -13 -145 -150 -576 -224 -705 -216 -380 -523
-705 -665 -705 -27 0 -28 1 -28 53 0 139 38 267 190 652 65 165 128 338 140
384 30 114 25 202 -13 260 -60 91 -176 141 -326 141 -47 0 -91 -4 -97 -8 -5
-4 -11 -29 -12 -57 -2 -59 -22 -154 -34 -161 -4 -3 -12 5 -17 18 -17 43 -70
106 -117 139 -69 47 -149 69 -255 69 -154 0 -258 -50 -405 -195 -129 -127
-230 -285 -319 -497 -18 -42 -63 -123 -100 -180 -245 -374 -556 -600 -881
-642 -52 -6 -52 -6 -64 26 -16 44 -24 210 -13 277 l8 55 95 17 c193 34 341
105 471 227 94 88 136 144 188 248 77 153 96 321 52 436 -53 137 -196 234
-372 253 -311 33 -654 -282 -815 -749 -33 -97 -42 -113 -99 -171 -40 -42 -82
-74 -116 -89 -56 -25 -165 -53 -174 -44 -3 2 4 31 16 64 69 196 99 494 65 638
-33 140 -111 242 -224 294 -81 37 -213 43 -309 13 -171 -53 -315 -173 -457
-381 -48 -71 -76 -104 -72 -86 4 15 76 204 160 420 225 574 256 668 256 790 0
197 -153 323 -359 297z m-8686 -315 c9 -56 -10 -170 -42 -261 -29 -81 -83
-176 -98 -172 -5 2 -20 23 -32 47 -56 110 -9 332 84 397 63 45 80 42 88 -11z
m1922 -947 c24 -65 0 -193 -58 -315 -65 -137 -191 -237 -353 -279 -33 -8 -62
-12 -65 -9 -8 8 26 101 71 189 51 102 109 190 187 287 62 77 174 172 195 165
6 -2 17 -19 23 -38z m5694 19 c16 -29 13 -141 -6 -213 -53 -204 -199 -349
-403 -401 -35 -8 -65 -14 -67 -12 -2 2 11 43 29 91 67 176 236 419 355 510 34
26 66 47 71 47 5 0 14 -10 21 -22z m3337 -56 c6 -68 -22 -191 -64 -279 -63
-133 -203 -242 -355 -277 -35 -9 -65 -13 -68 -11 -8 9 52 151 105 246 92 165
213 312 304 371 38 24 46 26 58 14 8 -8 17 -37 20 -64z m1359 -2 c7 -19 12
-60 12 -91 1 -64 -26 -109 -84 -145 -33 -20 -34 -22 -18 -37 43 -38 118 -48
179 -22 33 13 35 13 30 -3 -3 -9 -23 -84 -45 -167 -63 -237 -63 -236 -147
-346 -158 -206 -330 -365 -428 -394 -42 -13 -44 -13 -50 8 -11 40 -6 181 9
272 63 387 262 793 459 937 49 35 68 33 83 -12z m-6370 -17 c32 -77 -7 -240
-134 -564 l-68 -174 -155 -7 c-160 -6 -260 -24 -338 -58 -25 -11 -48 -18 -51
-14 -9 9 95 203 189 350 109 170 191 273 300 377 94 90 155 127 208 127 29 0
35 -5 49 -37z m3310 -70 c-10 -184 -68 -410 -157 -609 l-28 -62 -184 -5 c-178
-5 -213 -10 -346 -52 -22 -7 -21 -4 18 75 100 200 273 451 405 589 107 113
195 168 269 170 l29 1 -6 -107z m-3677 -942 c0 -33 -144 -178 -210 -211 -55
-28 -138 -37 -164 -17 -19 14 -19 16 -2 61 10 27 34 60 58 81 59 50 144 76
306 94 6 0 12 -3 12 -8z m3285 -43 c-49 -58 -120 -115 -180 -146 -39 -20 -65
-26 -120 -26 -69 -1 -70 -1 -73 26 -7 59 55 112 176 152 83 27 111 32 185 35
l49 1 -37 -42z"/>
<path d="M7423 4223 c-7 -2 -13 -17 -13 -31 0 -15 -9 -65 -21 -112 -41 -169
-24 -257 62 -320 68 -49 196 -79 277 -65 35 6 38 9 35 33 -3 15 7 80 21 145
14 65 26 136 26 158 0 88 -67 151 -195 185 -48 13 -167 18 -192 7z"/>
</g>
</svg>
